<svg width="500" height="500" viewBox="0 0 500 500" fill="none" xmlns="http://www.w3.org/2000/svg">
<path d="M435.57 73H395.53L364.45 153.63H384.38L300.84 382.61H285.49L281.79 392.71H297.16L297.3 392.3L297.16 392.71L284.77 426.67H303.98L369.18 251.42H393.56L407.75 212.75H383.57L435.57 73Z" fill="#29ABE2"/>
<path d="M250.24 284.48L204.05 163.71H232.8L218.02 122.41H188.25L169.36 73H151.99L240.96 308.85L250.24 284.48Z" fill="#29ABE2"/>
<path d="M240.96 308.85L251.67 337.23L284.04 251.42H308.67L322.86 212.75H298.63L351.34 73H312.19L281.11 153.63H300.1L240.96 308.85Z" fill="#FF3F60"/>
<path d="M216.5 364.97L211.74 351.98H199.68L187.69 319.13H179.1L122.07 163.71H151.93L136.68 122.41H106.91L88.78 73H65L144.24 286.01H152.91L177.06 351.98H189.28L194.05 364.97H181.82L188.28 382.61L176.47 382.62L180.15 392.72L191.98 392.71L204.41 426.67H226.95L204.43 364.97H216.5Z" fill="#FF3F60"/>
<path d="M395.53 73H351.34L298.63 212.75H322.86L308.67 251.42H284.04L251.67 337.23L151.99 73H88.78L106.91 122.41H136.68L151.93 163.71H122.07L179.1 319.13H187.69L199.68 351.98H211.74L216.5 364.97H204.43L226.95 426.67H284.77L297.3 392.3L297.16 392.71H281.79L285.49 382.61H300.84L384.38 153.63H364.45L395.53 73Z" fill="#0C003F"/>
</svg>
