<svg width="326" height="326" viewBox="0 0 326 326" fill="none" xmlns="http://www.w3.org/2000/svg">
<g clip-path="url(#clip0)">
<path d="M207.953 275.383H118.047V309.098H207.953V275.383Z" fill="#181818"/>
<path d="M325.955 236.049V255.435C326.758 268.684 316.722 280.1 303.479 281.001H22.5216C9.27829 280.1 -0.757458 268.684 0.0452236 255.435V236.049H325.955Z" fill="#49494A"/>
<path d="M325.955 25.6124V236.049H0.0452236V25.6124C-0.757458 12.3627 9.27829 0.946954 22.5216 0.0456085H303.478C316.722 0.946954 326.757 12.3627 325.955 25.6124Z" fill="#302F32"/>
<path d="M89.9513 303.478H236.049C245.359 303.478 252.906 311.026 252.906 320.336V325.955H73.0938V320.336C73.0938 311.026 80.6412 303.478 89.9513 303.478Z" fill="#49494A"/>
</g>
<g opacity="0.7">
<path d="M261.619 29.281H240.224L223.709 72.0507H234.407L189.739 194.479H181.522L179.56 199.825H187.772L181.143 218.002H191.445L226.254 124.444H239.277L246.928 103.593H233.947L261.619 29.281Z" fill="#29ABE2"/>
<path d="M162.65 141.942L138.164 77.9316H153.503L145.655 56.0121H129.776L119.554 29.281H110.241L157.673 155.008L162.65 141.942Z" fill="#29ABE2"/>
<path d="M157.673 155.008L163.409 170.213L180.672 124.444H193.893L201.544 103.593H188.531L216.588 29.281H195.711L179.052 71.8422H189.355L157.673 155.008Z" fill="#FF3F60"/>
<path d="M144.553 184.856L142.201 178.44H135.769L129.135 160.263H124.617L94.2079 77.3969H110.102L102.008 55.4775H86.0229L76.4104 29.281H63.6543L106.018 143.155H110.648L123.569 178.44H130.199L132.551 184.856H126.071L129.6 194.479L123.254 194.484L125.205 199.825L131.535 199.82L138.191 218.002H150.268L138.164 184.856H144.553Z" fill="#FF3F60"/>
<path d="M240.224 29.281H216.588L188.531 103.593H201.544L193.893 124.444H180.672L163.409 170.213L110.241 29.281H76.4104L86.0229 55.4775H102.008L110.102 77.3969H94.208L124.617 160.263H129.135L135.769 178.44H142.201L144.553 184.856H138.165L150.268 218.002H181.143L187.772 199.825H179.56L181.522 194.479H189.739L234.407 72.0507H223.709L240.224 29.281Z" fill="#0C003F"/>
</g>
<defs>
<clipPath id="clip0">
<rect width="326" height="326" fill="white"/>
</clipPath>
</defs>
</svg>
