<svg width="16" height="16" viewBox="0 0 16 16" fill="none" xmlns="http://www.w3.org/2000/svg">
<path d="M16 0.0467529H14.2708L12.936 3.5035H13.8006L10.1905 13.3984H9.52638L9.3678 13.8305H10.0315L9.4957 15.2996H10.3283L13.1417 7.738H14.1943L14.8126 6.05284H13.7635L16 0.0467529Z" fill="#29ABE2"/>
<path d="M8.00113 9.15224L6.02214 3.9788H7.26182L6.6275 2.20722H5.34419L4.51803 0.0467529H3.76532L7.59885 10.2083L8.00113 9.15224Z" fill="#29ABE2"/>
<path d="M7.59882 10.2083L8.06245 11.4372L9.45768 7.73801H10.5262L11.1446 6.05284H10.0929L12.3605 0.0467529H10.6732L9.32676 3.48664H10.1594L7.59882 10.2083Z" fill="#FF3F60"/>
<path d="M6.53843 12.6207L6.34831 12.1021H5.8285L5.29227 10.633H4.92715L2.46941 3.93559H3.75402L3.09983 2.16401H1.80788L1.03097 0.0467529H0L3.4239 9.25033H3.7981L4.84246 12.1021H5.37826L5.56838 12.6207H5.04468L5.32987 13.3984L4.81697 13.3989L4.97468 13.8305L5.48628 13.8301L6.02424 15.2996H7.00034L6.02208 12.6207H6.53843Z" fill="#FF3F60"/>
<path d="M14.2707 0.0467529H12.3604L10.0928 6.05284H11.1445L10.5262 7.738H9.45762L8.06239 11.4372L3.76523 0.0467529H1.03094L1.80785 2.16401H3.09981L3.75399 3.93559H2.46938L4.92713 10.633H5.29224L5.82847 12.1021H6.34828L6.5384 12.6207H6.02205L7.00031 15.2996H9.49564L10.0314 13.8305H9.36774L9.52632 13.3984H10.1904L13.8006 3.5035H12.936L14.2707 0.0467529Z" fill="#0C003F"/>
</svg>
